<?xml version="1.0" encoding="UTF-8" standalone="no"?>
<svg xmlns="http://www.w3.org/2000/svg" viewBox="0 22.4 270.7 271">
<style>*{fill:#0091ff;}path{stroke:none;}text{font:bold 100px sans-serif;transform:rotate(-47deg);}</style>
<text x="-140" y="200">bonk</text>
<path d="m9.868205,282.9218 c6.52199,6.522 13.0117,10.528 16.5,10.0259 1.4751,-0.2124 2.413415,-1.2307 2.393656,-2.4875 -0.03248,-2.0659 -2.654295,-4.776 -2.149878,-9.0779 1.454299,-12.4031 28.895192,-38.0387 51.113913,-58.3176 25.083821,-22.8938 43.511841,-38.9602 74.315831,-65.1591 38.61602,-32.8431 96.68116,-81.6096 113.54377,-105.9863 6.55445,-9.4752 6.88378,-15.2654 -1.2828,-23.432"/>
<path d="m10.068205,283.1218c-6.52199,-6.522 -10.528,-13.0117 -10.0259,-16.5 0.2124,-1.4751 1.230715,-2.4135 2.487446,-2.3937 2.065949,0.033 4.776006,2.6543 9.077957,2.1499 12.403082,-1.4543 38.038683,-28.8952 58.317527,-51.1139 22.893798,-25.0839 38.960261,-43.5119 65.159191,-74.3159 32.84307,-38.616 81.60955,-96.6811 105.98626,-113.5437 9.47516,-6.5545 15.26538,-6.8838 23.432,1.2828"/>
</svg>
